<?xml version="1.0"?>
<svg xmlns="http://www.w3.org/2000/svg" xmlns:xlink="http://www.w3.org/1999/xlink" version="1.1" id="Capa_1" x="0px" y="0px" viewBox="0 0 512.002 512.002" style="enable-background:new 0 0 512.002 512.002;" xml:space="preserve" width="512px" height="512px"><g><g>
	<path d="M86.605,265.606L166,186.212l19.395,19.395c5.859,5.859,15.352,5.859,21.211,0L301,111.212v23.789c0,8.291,6.709,15,15,15   s15-6.709,15-15v-60c0-8.307-6.835-15-15-15h-60c-8.291,0-15,6.709-15,15s6.709,15,15,15h23.789L196,173.79l-19.395-19.395   c-5.859-5.859-15.352-5.859-21.211,0l-90,90c-5.859,5.859-5.859,15.352,0,21.211C71.254,271.466,80.746,271.466,86.605,265.606z" data-original="#000000" class="active-path" data-old_color="#000000" fill="#CF1C24"/>
	<path d="M76,452.001h90c8.291,0,15-6.709,15-15v-92c0-8.291-6.709-15-15-15H76c-8.291,0-15,6.709-15,15v92   C61,445.292,67.709,452.001,76,452.001z" data-original="#000000" class="active-path" data-old_color="#000000" fill="#CF1C24"/>
	<path d="M316,240.001h-90c-8.291,0-15,6.709-15,15v182c0,8.291,6.709,15,15,15h90c8.291,0,15-6.709,15-15v-182   C331,246.71,324.291,240.001,316,240.001z" data-original="#000000" class="active-path" data-old_color="#000000" fill="#CF1C24"/>
	<path d="M346,210.001h15v227c0,8.291,6.709,15,15,15h91c8.291,0,15-6.709,15-15v-227h15c5.449,0,10.474-2.959,13.125-7.734   c2.637-4.761,2.49-10.591-0.41-15.22l-76-120c-5.479-8.76-19.951-8.76-25.43,0l-75,120c-2.9,4.629-3.047,10.459-0.41,15.22   C335.526,207.042,340.551,210.001,346,210.001z" data-original="#000000" class="active-path" data-old_color="#000000" fill="#CF1C24"/>
	<path d="M497,482.001H30v-467c0-8.291-6.709-15-15-15s-15,6.709-15,15v482c0,8.291,6.709,15,15,15h482c8.291,0,15-6.709,15-15   S505.291,482.001,497,482.001z" data-original="#000000" class="active-path" data-old_color="#000000" fill="#CF1C24"/>
</g></g> </svg>
