<?xml version="1.0"?>
<svg xmlns="http://www.w3.org/2000/svg" height="512px" viewBox="0 -12 426.00004 426" width="512px"><g><path d="m130.199219 96.699219c0 11.875-9.625 21.5-21.5 21.5s-21.5-9.625-21.5-21.5 9.625-21.5 21.5-21.5 21.5 9.625 21.5 21.5zm0 0" data-original="#000000" class="active-path" data-old_color="#000000" fill="#D2D2D2"/><path d="m53 307h44v44h-44zm0 0" data-original="#000000" class="active-path" data-old_color="#000000" fill="#D2D2D2"/><path d="m53 212h44v44h-44zm0 0" data-original="#000000" class="active-path" data-old_color="#000000" fill="#D2D2D2"/><path d="m394 0h-362c-8.488281-.0078125-16.632812 3.359375-22.636719 9.363281-6.003906 6.003907-9.3710935 14.148438-9.363281 22.636719v338c-.0078125 8.488281 3.359375 16.632812 9.363281 22.636719 6.003907 6.003906 14.148438 9.371093 22.636719 9.363281h362c8.488281.007812 16.632812-3.359375 22.636719-9.363281 6.003906-6.003907 9.371093-14.148438 9.363281-22.636719v-338c.007812-8.488281-3.359375-16.632812-9.363281-22.636719-6.003907-6.003906-14.148438-9.3710935-22.636719-9.363281zm-281 359c-.011719 4.414062-3.585938 7.988281-8 8h-60c-4.414062-.011719-7.988281-3.585938-8-8v-60c.011719-4.414062 3.585938-7.988281 8-8h60c4.414062.011719 7.988281 3.585938 8 8zm0-95c-.011719 4.414062-3.585938 7.988281-8 8h-60c-4.414062-.011719-7.988281-3.585938-8-8v-60c.011719-4.414062 3.585938-7.988281 8-8h60c4.414062.011719 7.988281 3.585938 8 8zm234 93h-208c-4.417969 0-8-3.582031-8-8s3.582031-8 8-8h208c4.417969 0 8 3.582031 8 8s-3.582031 8-8 8zm-216-48c.011719-4.414062 3.585938-7.988281 8-8h118c4.417969 0 8 3.582031 8 8s-3.582031 8-8 8h-118c-4.414062-.011719-7.988281-3.585938-8-8zm216-47h-208c-4.417969 0-8-3.582031-8-8s3.582031-8 8-8h208c4.417969 0 8 3.582031 8 8s-3.582031 8-8 8zm-216-48c.011719-4.414062 3.585938-7.988281 8-8h118c4.417969 0 8 3.582031 8 8s-3.582031 8-8 8h-118c-4.414062-.011719-7.988281-3.585938-8-8zm258-53c-.011719 4.414062-3.585938 7.988281-8 8h-336c-4.414062-.011719-7.988281-3.585938-8-8v-120c.011719-4.414062 3.585938-7.988281 8-8h336c4.414062.011719 7.988281 3.585938 8 8zm0 0" data-original="#000000" class="active-path" data-old_color="#000000" fill="#D2D2D2"/><path d="m53 153h320v-104h-320zm55.699219-93.800781c20.707031.007812 37.492187 16.792969 37.5 37.5.007812 7.175781-2.078125 14.195312-6 20.199219l12.300781 12.300781c3.101562 3.128906 3.101562 8.171875 0 11.300781-1.507812 1.511719-3.566406 2.339844-5.699219 2.300781-2.125-.007812-4.167969-.832031-5.699219-2.300781l-12.300781-12.300781c-6.007812 3.921875-13.027343 6.007812-20.199219 6-20.710937-.027344-37.480468-16.839844-37.453124-37.550781.027343-20.710938 16.839843-37.476563 37.550781-37.449219zm0 0" data-original="#000000" class="active-path" data-old_color="#000000" fill="#D2D2D2"/></g> </svg>
