<?xml version="1.0"?>
<svg xmlns="http://www.w3.org/2000/svg" id="Layer_1" data-name="Layer 1" viewBox="0 0 128 128" width="512px" height="512px" class=""><g><title class="active-path">QR CODE</title><path d="M22.542,25.366V54.423a1.75,1.75,0,0,0,1.75,1.75H53.35a1.75,1.75,0,0,0,1.75-1.75V25.366a1.75,1.75,0,0,0-1.75-1.75H24.292A1.75,1.75,0,0,0,22.542,25.366Zm3.5,1.75H51.6V52.673H26.042Z" data-original="#000000" class="active-path" fill="#FFFFFF"/><path d="M105.458,54.423V25.366a1.75,1.75,0,0,0-1.75-1.75H74.65a1.75,1.75,0,0,0-1.75,1.75V54.423a1.75,1.75,0,0,0,1.75,1.75h29.057A1.75,1.75,0,0,0,105.458,54.423Zm-3.5-1.75H76.4V27.116h25.557Z" data-original="#000000" class="active-path" fill="#FFFFFF"/><path d="M53.35,71.827H24.292a1.75,1.75,0,0,0-1.75,1.75v29.057a1.75,1.75,0,0,0,1.75,1.75H53.35a1.75,1.75,0,0,0,1.75-1.75V73.577A1.75,1.75,0,0,0,53.35,71.827ZM51.6,100.884H26.042V75.327H51.6Z" data-original="#000000" class="active-path" fill="#FFFFFF"/><path d="M105.458,102.634V73.577a1.75,1.75,0,0,0-1.75-1.75H74.65a1.75,1.75,0,0,0-1.75,1.75v29.057a1.75,1.75,0,0,0,1.75,1.75h29.057A1.75,1.75,0,0,0,105.458,102.634Zm-3.5-1.75H76.4V75.327h25.557Z" data-original="#000000" class="active-path" fill="#FFFFFF"/><path d="M13.523,41.75A1.75,1.75,0,0,0,15.273,40V15.273H40a1.75,1.75,0,0,0,0-3.5H13.523a1.75,1.75,0,0,0-1.75,1.75V40A1.75,1.75,0,0,0,13.523,41.75Z" data-original="#000000" class="active-path" fill="#FFFFFF"/><path d="M114.477,11.773H88a1.75,1.75,0,0,0,0,3.5h24.727V40a1.75,1.75,0,0,0,3.5,0V13.523A1.75,1.75,0,0,0,114.477,11.773Z" data-original="#000000" class="active-path" fill="#FFFFFF"/><path d="M114.477,86.25a1.75,1.75,0,0,0-1.75,1.75v24.727H88a1.75,1.75,0,0,0,0,3.5h26.477a1.75,1.75,0,0,0,1.75-1.75V88A1.75,1.75,0,0,0,114.477,86.25Z" data-original="#000000" class="active-path" fill="#FFFFFF"/><path d="M40,112.727H15.273V88a1.75,1.75,0,0,0-3.5,0v26.477a1.75,1.75,0,0,0,1.75,1.75H40a1.75,1.75,0,0,0,0-3.5Z" data-original="#000000" class="active-path" fill="#FFFFFF"/><path d="M64,62.25H24.292a1.75,1.75,0,0,0,0,3.5H62.25V78.119a1.75,1.75,0,0,0,3.5,0V64A1.75,1.75,0,0,0,64,62.25Z" data-original="#000000" class="active-path" fill="#FFFFFF"/><path d="M64,83a1.75,1.75,0,0,0-1.75,1.75V89a1.75,1.75,0,0,0,3.5,0V84.75A1.75,1.75,0,0,0,64,83Z" data-original="#000000" class="active-path" fill="#FFFFFF"/><path d="M64,94.5a1.75,1.75,0,0,0-1.75,1.75v6.384a1.75,1.75,0,1,0,3.5,0V96.25A1.75,1.75,0,0,0,64,94.5Z" data-original="#000000" class="active-path" fill="#FFFFFF"/><path d="M82.25,18.333a1.75,1.75,0,0,0-1.75-1.75H64a1.75,1.75,0,0,0-1.75,1.75v13.5a1.75,1.75,0,1,0,3.5,0V20.083H80.5A1.75,1.75,0,0,0,82.25,18.333Z" data-original="#000000" class="active-path" fill="#FFFFFF"/><path d="M74.65,62.25a1.75,1.75,0,0,0,0,3.5h7.016a1.75,1.75,0,1,0,0-3.5Z" data-original="#000000" class="active-path" fill="#FFFFFF"/><path d="M88,62.25a1.75,1.75,0,0,0,0,3.5h1.833a1.75,1.75,0,0,0,0-3.5Z" data-original="#000000" class="active-path" fill="#FFFFFF"/><path d="M114.477,62.25H103.708a1.75,1.75,0,1,0,0,3.5h10.769a1.75,1.75,0,0,0,0-3.5Z" data-original="#000000" class="active-path" fill="#FFFFFF"/><path d="M43.132,33.833H34.509a1.75,1.75,0,0,0-1.75,1.75v8.623a1.75,1.75,0,0,0,1.75,1.75h8.623a1.75,1.75,0,0,0,1.75-1.75V35.583A1.75,1.75,0,0,0,43.132,33.833Zm-1.75,8.623H36.259V37.333h5.123Z" data-original="#000000" class="active-path" fill="#FFFFFF"/><path d="M84.868,45.956h8.623a1.75,1.75,0,0,0,1.75-1.75V35.583a1.75,1.75,0,0,0-1.75-1.75H84.868a1.75,1.75,0,0,0-1.75,1.75v8.623A1.75,1.75,0,0,0,84.868,45.956Zm1.75-8.623h5.123v5.123H86.618Z" data-original="#000000" class="active-path" fill="#FFFFFF"/><path d="M34.509,93.246h8.623a1.75,1.75,0,0,0,1.75-1.75V82.873a1.75,1.75,0,0,0-1.75-1.75H34.509a1.75,1.75,0,0,0-1.75,1.75V91.5A1.75,1.75,0,0,0,34.509,93.246Zm1.75-8.623h5.123v5.123H36.259Z" data-original="#000000" class="active-path" fill="#FFFFFF"/><path d="M84.868,93.246h8.623a1.75,1.75,0,0,0,1.75-1.75V82.873a1.75,1.75,0,0,0-1.75-1.75H84.868a1.75,1.75,0,0,0-1.75,1.75V91.5A1.75,1.75,0,0,0,84.868,93.246Zm1.75-8.623h5.123v5.123H86.618Z" data-original="#000000" class="active-path" fill="#FFFFFF"/></g> </svg>
