<?xml version="1.0" encoding="UTF-8"?>
<svg xmlns="http://www.w3.org/2000/svg" xmlns:xlink="http://www.w3.org/1999/xlink" version="1.1" width="500px" height="500px" viewBox="0 0 500 500"><defs><rect id="r0" width="17" height="17" fill="#000000"/></defs><rect x="0" y="0" width="500" height="500" fill="#fefefe" fill-opacity="0"/><use x="3" y="3" xlink:href="#r0"/><use x="20" y="3" xlink:href="#r0"/><use x="37" y="3" xlink:href="#r0"/><use x="54" y="3" xlink:href="#r0"/><use x="71" y="3" xlink:href="#r0"/><use x="88" y="3" xlink:href="#r0"/><use x="105" y="3" xlink:href="#r0"/><use x="173" y="3" xlink:href="#r0"/><use x="207" y="3" xlink:href="#r0"/><use x="224" y="3" xlink:href="#r0"/><use x="275" y="3" xlink:href="#r0"/><use x="292" y="3" xlink:href="#r0"/><use x="309" y="3" xlink:href="#r0"/><use x="326" y="3" xlink:href="#r0"/><use x="377" y="3" xlink:href="#r0"/><use x="394" y="3" xlink:href="#r0"/><use x="411" y="3" xlink:href="#r0"/><use x="428" y="3" xlink:href="#r0"/><use x="445" y="3" xlink:href="#r0"/><use x="462" y="3" xlink:href="#r0"/><use x="479" y="3" xlink:href="#r0"/><use x="3" y="20" xlink:href="#r0"/><use x="105" y="20" xlink:href="#r0"/><use x="139" y="20" xlink:href="#r0"/><use x="173" y="20" xlink:href="#r0"/><use x="224" y="20" xlink:href="#r0"/><use x="241" y="20" xlink:href="#r0"/><use x="258" y="20" xlink:href="#r0"/><use x="275" y="20" xlink:href="#r0"/><use x="292" y="20" xlink:href="#r0"/><use x="343" y="20" xlink:href="#r0"/><use x="377" y="20" xlink:href="#r0"/><use x="479" y="20" xlink:href="#r0"/><use x="3" y="37" xlink:href="#r0"/><use x="37" y="37" xlink:href="#r0"/><use x="54" y="37" xlink:href="#r0"/><use x="71" y="37" xlink:href="#r0"/><use x="105" y="37" xlink:href="#r0"/><use x="207" y="37" xlink:href="#r0"/><use x="258" y="37" xlink:href="#r0"/><use x="275" y="37" xlink:href="#r0"/><use x="326" y="37" xlink:href="#r0"/><use x="377" y="37" xlink:href="#r0"/><use x="411" y="37" xlink:href="#r0"/><use x="428" y="37" xlink:href="#r0"/><use x="445" y="37" xlink:href="#r0"/><use x="479" y="37" xlink:href="#r0"/><use x="3" y="54" xlink:href="#r0"/><use x="37" y="54" xlink:href="#r0"/><use x="54" y="54" xlink:href="#r0"/><use x="71" y="54" xlink:href="#r0"/><use x="105" y="54" xlink:href="#r0"/><use x="139" y="54" xlink:href="#r0"/><use x="156" y="54" xlink:href="#r0"/><use x="173" y="54" xlink:href="#r0"/><use x="207" y="54" xlink:href="#r0"/><use x="224" y="54" xlink:href="#r0"/><use x="241" y="54" xlink:href="#r0"/><use x="258" y="54" xlink:href="#r0"/><use x="292" y="54" xlink:href="#r0"/><use x="377" y="54" xlink:href="#r0"/><use x="411" y="54" xlink:href="#r0"/><use x="428" y="54" xlink:href="#r0"/><use x="445" y="54" xlink:href="#r0"/><use x="479" y="54" xlink:href="#r0"/><use x="3" y="71" xlink:href="#r0"/><use x="37" y="71" xlink:href="#r0"/><use x="54" y="71" xlink:href="#r0"/><use x="71" y="71" xlink:href="#r0"/><use x="105" y="71" xlink:href="#r0"/><use x="156" y="71" xlink:href="#r0"/><use x="241" y="71" xlink:href="#r0"/><use x="275" y="71" xlink:href="#r0"/><use x="326" y="71" xlink:href="#r0"/><use x="343" y="71" xlink:href="#r0"/><use x="377" y="71" xlink:href="#r0"/><use x="411" y="71" xlink:href="#r0"/><use x="428" y="71" xlink:href="#r0"/><use x="445" y="71" xlink:href="#r0"/><use x="479" y="71" xlink:href="#r0"/><use x="3" y="88" xlink:href="#r0"/><use x="105" y="88" xlink:href="#r0"/><use x="139" y="88" xlink:href="#r0"/><use x="156" y="88" xlink:href="#r0"/><use x="190" y="88" xlink:href="#r0"/><use x="207" y="88" xlink:href="#r0"/><use x="241" y="88" xlink:href="#r0"/><use x="258" y="88" xlink:href="#r0"/><use x="275" y="88" xlink:href="#r0"/><use x="292" y="88" xlink:href="#r0"/><use x="309" y="88" xlink:href="#r0"/><use x="343" y="88" xlink:href="#r0"/><use x="377" y="88" xlink:href="#r0"/><use x="479" y="88" xlink:href="#r0"/><use x="3" y="105" xlink:href="#r0"/><use x="20" y="105" xlink:href="#r0"/><use x="37" y="105" xlink:href="#r0"/><use x="54" y="105" xlink:href="#r0"/><use x="71" y="105" xlink:href="#r0"/><use x="88" y="105" xlink:href="#r0"/><use x="105" y="105" xlink:href="#r0"/><use x="139" y="105" xlink:href="#r0"/><use x="173" y="105" xlink:href="#r0"/><use x="207" y="105" xlink:href="#r0"/><use x="241" y="105" xlink:href="#r0"/><use x="275" y="105" xlink:href="#r0"/><use x="309" y="105" xlink:href="#r0"/><use x="343" y="105" xlink:href="#r0"/><use x="377" y="105" xlink:href="#r0"/><use x="394" y="105" xlink:href="#r0"/><use x="411" y="105" xlink:href="#r0"/><use x="428" y="105" xlink:href="#r0"/><use x="445" y="105" xlink:href="#r0"/><use x="462" y="105" xlink:href="#r0"/><use x="479" y="105" xlink:href="#r0"/><use x="156" y="122" xlink:href="#r0"/><use x="173" y="122" xlink:href="#r0"/><use x="190" y="122" xlink:href="#r0"/><use x="258" y="122" xlink:href="#r0"/><use x="275" y="122" xlink:href="#r0"/><use x="309" y="122" xlink:href="#r0"/><use x="326" y="122" xlink:href="#r0"/><use x="343" y="122" xlink:href="#r0"/><use x="3" y="139" xlink:href="#r0"/><use x="20" y="139" xlink:href="#r0"/><use x="37" y="139" xlink:href="#r0"/><use x="54" y="139" xlink:href="#r0"/><use x="71" y="139" xlink:href="#r0"/><use x="105" y="139" xlink:href="#r0"/><use x="122" y="139" xlink:href="#r0"/><use x="139" y="139" xlink:href="#r0"/><use x="156" y="139" xlink:href="#r0"/><use x="190" y="139" xlink:href="#r0"/><use x="224" y="139" xlink:href="#r0"/><use x="292" y="139" xlink:href="#r0"/><use x="326" y="139" xlink:href="#r0"/><use x="360" y="139" xlink:href="#r0"/><use x="394" y="139" xlink:href="#r0"/><use x="428" y="139" xlink:href="#r0"/><use x="462" y="139" xlink:href="#r0"/><use x="20" y="156" xlink:href="#r0"/><use x="37" y="156" xlink:href="#r0"/><use x="71" y="156" xlink:href="#r0"/><use x="139" y="156" xlink:href="#r0"/><use x="173" y="156" xlink:href="#r0"/><use x="207" y="156" xlink:href="#r0"/><use x="224" y="156" xlink:href="#r0"/><use x="275" y="156" xlink:href="#r0"/><use x="326" y="156" xlink:href="#r0"/><use x="343" y="156" xlink:href="#r0"/><use x="360" y="156" xlink:href="#r0"/><use x="377" y="156" xlink:href="#r0"/><use x="394" y="156" xlink:href="#r0"/><use x="411" y="156" xlink:href="#r0"/><use x="479" y="156" xlink:href="#r0"/><use x="3" y="173" xlink:href="#r0"/><use x="105" y="173" xlink:href="#r0"/><use x="173" y="173" xlink:href="#r0"/><use x="224" y="173" xlink:href="#r0"/><use x="241" y="173" xlink:href="#r0"/><use x="258" y="173" xlink:href="#r0"/><use x="275" y="173" xlink:href="#r0"/><use x="394" y="173" xlink:href="#r0"/><use x="20" y="190" xlink:href="#r0"/><use x="37" y="190" xlink:href="#r0"/><use x="71" y="190" xlink:href="#r0"/><use x="122" y="190" xlink:href="#r0"/><use x="139" y="190" xlink:href="#r0"/><use x="207" y="190" xlink:href="#r0"/><use x="241" y="190" xlink:href="#r0"/><use x="258" y="190" xlink:href="#r0"/><use x="343" y="190" xlink:href="#r0"/><use x="411" y="190" xlink:href="#r0"/><use x="462" y="190" xlink:href="#r0"/><use x="3" y="207" xlink:href="#r0"/><use x="37" y="207" xlink:href="#r0"/><use x="54" y="207" xlink:href="#r0"/><use x="71" y="207" xlink:href="#r0"/><use x="105" y="207" xlink:href="#r0"/><use x="139" y="207" xlink:href="#r0"/><use x="156" y="207" xlink:href="#r0"/><use x="173" y="207" xlink:href="#r0"/><use x="207" y="207" xlink:href="#r0"/><use x="224" y="207" xlink:href="#r0"/><use x="275" y="207" xlink:href="#r0"/><use x="292" y="207" xlink:href="#r0"/><use x="309" y="207" xlink:href="#r0"/><use x="326" y="207" xlink:href="#r0"/><use x="428" y="207" xlink:href="#r0"/><use x="445" y="207" xlink:href="#r0"/><use x="20" y="224" xlink:href="#r0"/><use x="156" y="224" xlink:href="#r0"/><use x="241" y="224" xlink:href="#r0"/><use x="275" y="224" xlink:href="#r0"/><use x="292" y="224" xlink:href="#r0"/><use x="309" y="224" xlink:href="#r0"/><use x="326" y="224" xlink:href="#r0"/><use x="343" y="224" xlink:href="#r0"/><use x="360" y="224" xlink:href="#r0"/><use x="377" y="224" xlink:href="#r0"/><use x="394" y="224" xlink:href="#r0"/><use x="411" y="224" xlink:href="#r0"/><use x="445" y="224" xlink:href="#r0"/><use x="479" y="224" xlink:href="#r0"/><use x="3" y="241" xlink:href="#r0"/><use x="54" y="241" xlink:href="#r0"/><use x="71" y="241" xlink:href="#r0"/><use x="88" y="241" xlink:href="#r0"/><use x="105" y="241" xlink:href="#r0"/><use x="122" y="241" xlink:href="#r0"/><use x="139" y="241" xlink:href="#r0"/><use x="156" y="241" xlink:href="#r0"/><use x="190" y="241" xlink:href="#r0"/><use x="207" y="241" xlink:href="#r0"/><use x="224" y="241" xlink:href="#r0"/><use x="258" y="241" xlink:href="#r0"/><use x="275" y="241" xlink:href="#r0"/><use x="292" y="241" xlink:href="#r0"/><use x="360" y="241" xlink:href="#r0"/><use x="445" y="241" xlink:href="#r0"/><use x="20" y="258" xlink:href="#r0"/><use x="71" y="258" xlink:href="#r0"/><use x="139" y="258" xlink:href="#r0"/><use x="173" y="258" xlink:href="#r0"/><use x="190" y="258" xlink:href="#r0"/><use x="258" y="258" xlink:href="#r0"/><use x="326" y="258" xlink:href="#r0"/><use x="343" y="258" xlink:href="#r0"/><use x="394" y="258" xlink:href="#r0"/><use x="462" y="258" xlink:href="#r0"/><use x="3" y="275" xlink:href="#r0"/><use x="20" y="275" xlink:href="#r0"/><use x="88" y="275" xlink:href="#r0"/><use x="105" y="275" xlink:href="#r0"/><use x="139" y="275" xlink:href="#r0"/><use x="173" y="275" xlink:href="#r0"/><use x="190" y="275" xlink:href="#r0"/><use x="224" y="275" xlink:href="#r0"/><use x="258" y="275" xlink:href="#r0"/><use x="292" y="275" xlink:href="#r0"/><use x="326" y="275" xlink:href="#r0"/><use x="445" y="275" xlink:href="#r0"/><use x="3" y="292" xlink:href="#r0"/><use x="37" y="292" xlink:href="#r0"/><use x="54" y="292" xlink:href="#r0"/><use x="122" y="292" xlink:href="#r0"/><use x="139" y="292" xlink:href="#r0"/><use x="156" y="292" xlink:href="#r0"/><use x="173" y="292" xlink:href="#r0"/><use x="207" y="292" xlink:href="#r0"/><use x="241" y="292" xlink:href="#r0"/><use x="275" y="292" xlink:href="#r0"/><use x="292" y="292" xlink:href="#r0"/><use x="309" y="292" xlink:href="#r0"/><use x="326" y="292" xlink:href="#r0"/><use x="360" y="292" xlink:href="#r0"/><use x="377" y="292" xlink:href="#r0"/><use x="411" y="292" xlink:href="#r0"/><use x="428" y="292" xlink:href="#r0"/><use x="445" y="292" xlink:href="#r0"/><use x="479" y="292" xlink:href="#r0"/><use x="3" y="309" xlink:href="#r0"/><use x="37" y="309" xlink:href="#r0"/><use x="105" y="309" xlink:href="#r0"/><use x="139" y="309" xlink:href="#r0"/><use x="156" y="309" xlink:href="#r0"/><use x="173" y="309" xlink:href="#r0"/><use x="258" y="309" xlink:href="#r0"/><use x="343" y="309" xlink:href="#r0"/><use x="394" y="309" xlink:href="#r0"/><use x="411" y="309" xlink:href="#r0"/><use x="428" y="309" xlink:href="#r0"/><use x="445" y="309" xlink:href="#r0"/><use x="3" y="326" xlink:href="#r0"/><use x="37" y="326" xlink:href="#r0"/><use x="71" y="326" xlink:href="#r0"/><use x="88" y="326" xlink:href="#r0"/><use x="173" y="326" xlink:href="#r0"/><use x="207" y="326" xlink:href="#r0"/><use x="258" y="326" xlink:href="#r0"/><use x="343" y="326" xlink:href="#r0"/><use x="462" y="326" xlink:href="#r0"/><use x="3" y="343" xlink:href="#r0"/><use x="54" y="343" xlink:href="#r0"/><use x="71" y="343" xlink:href="#r0"/><use x="105" y="343" xlink:href="#r0"/><use x="122" y="343" xlink:href="#r0"/><use x="139" y="343" xlink:href="#r0"/><use x="156" y="343" xlink:href="#r0"/><use x="173" y="343" xlink:href="#r0"/><use x="207" y="343" xlink:href="#r0"/><use x="224" y="343" xlink:href="#r0"/><use x="258" y="343" xlink:href="#r0"/><use x="275" y="343" xlink:href="#r0"/><use x="292" y="343" xlink:href="#r0"/><use x="343" y="343" xlink:href="#r0"/><use x="360" y="343" xlink:href="#r0"/><use x="377" y="343" xlink:href="#r0"/><use x="394" y="343" xlink:href="#r0"/><use x="411" y="343" xlink:href="#r0"/><use x="445" y="343" xlink:href="#r0"/><use x="462" y="343" xlink:href="#r0"/><use x="479" y="343" xlink:href="#r0"/><use x="139" y="360" xlink:href="#r0"/><use x="241" y="360" xlink:href="#r0"/><use x="275" y="360" xlink:href="#r0"/><use x="309" y="360" xlink:href="#r0"/><use x="343" y="360" xlink:href="#r0"/><use x="411" y="360" xlink:href="#r0"/><use x="428" y="360" xlink:href="#r0"/><use x="445" y="360" xlink:href="#r0"/><use x="462" y="360" xlink:href="#r0"/><use x="479" y="360" xlink:href="#r0"/><use x="3" y="377" xlink:href="#r0"/><use x="20" y="377" xlink:href="#r0"/><use x="37" y="377" xlink:href="#r0"/><use x="54" y="377" xlink:href="#r0"/><use x="71" y="377" xlink:href="#r0"/><use x="88" y="377" xlink:href="#r0"/><use x="105" y="377" xlink:href="#r0"/><use x="139" y="377" xlink:href="#r0"/><use x="173" y="377" xlink:href="#r0"/><use x="190" y="377" xlink:href="#r0"/><use x="207" y="377" xlink:href="#r0"/><use x="224" y="377" xlink:href="#r0"/><use x="258" y="377" xlink:href="#r0"/><use x="275" y="377" xlink:href="#r0"/><use x="309" y="377" xlink:href="#r0"/><use x="326" y="377" xlink:href="#r0"/><use x="343" y="377" xlink:href="#r0"/><use x="377" y="377" xlink:href="#r0"/><use x="411" y="377" xlink:href="#r0"/><use x="428" y="377" xlink:href="#r0"/><use x="445" y="377" xlink:href="#r0"/><use x="3" y="394" xlink:href="#r0"/><use x="105" y="394" xlink:href="#r0"/><use x="156" y="394" xlink:href="#r0"/><use x="190" y="394" xlink:href="#r0"/><use x="258" y="394" xlink:href="#r0"/><use x="275" y="394" xlink:href="#r0"/><use x="326" y="394" xlink:href="#r0"/><use x="343" y="394" xlink:href="#r0"/><use x="411" y="394" xlink:href="#r0"/><use x="428" y="394" xlink:href="#r0"/><use x="462" y="394" xlink:href="#r0"/><use x="3" y="411" xlink:href="#r0"/><use x="37" y="411" xlink:href="#r0"/><use x="54" y="411" xlink:href="#r0"/><use x="71" y="411" xlink:href="#r0"/><use x="105" y="411" xlink:href="#r0"/><use x="139" y="411" xlink:href="#r0"/><use x="156" y="411" xlink:href="#r0"/><use x="173" y="411" xlink:href="#r0"/><use x="190" y="411" xlink:href="#r0"/><use x="207" y="411" xlink:href="#r0"/><use x="224" y="411" xlink:href="#r0"/><use x="292" y="411" xlink:href="#r0"/><use x="343" y="411" xlink:href="#r0"/><use x="360" y="411" xlink:href="#r0"/><use x="377" y="411" xlink:href="#r0"/><use x="394" y="411" xlink:href="#r0"/><use x="411" y="411" xlink:href="#r0"/><use x="428" y="411" xlink:href="#r0"/><use x="445" y="411" xlink:href="#r0"/><use x="479" y="411" xlink:href="#r0"/><use x="3" y="428" xlink:href="#r0"/><use x="37" y="428" xlink:href="#r0"/><use x="54" y="428" xlink:href="#r0"/><use x="71" y="428" xlink:href="#r0"/><use x="105" y="428" xlink:href="#r0"/><use x="139" y="428" xlink:href="#r0"/><use x="156" y="428" xlink:href="#r0"/><use x="173" y="428" xlink:href="#r0"/><use x="207" y="428" xlink:href="#r0"/><use x="224" y="428" xlink:href="#r0"/><use x="292" y="428" xlink:href="#r0"/><use x="309" y="428" xlink:href="#r0"/><use x="326" y="428" xlink:href="#r0"/><use x="394" y="428" xlink:href="#r0"/><use x="462" y="428" xlink:href="#r0"/><use x="479" y="428" xlink:href="#r0"/><use x="3" y="445" xlink:href="#r0"/><use x="37" y="445" xlink:href="#r0"/><use x="54" y="445" xlink:href="#r0"/><use x="71" y="445" xlink:href="#r0"/><use x="105" y="445" xlink:href="#r0"/><use x="139" y="445" xlink:href="#r0"/><use x="156" y="445" xlink:href="#r0"/><use x="207" y="445" xlink:href="#r0"/><use x="241" y="445" xlink:href="#r0"/><use x="258" y="445" xlink:href="#r0"/><use x="275" y="445" xlink:href="#r0"/><use x="292" y="445" xlink:href="#r0"/><use x="309" y="445" xlink:href="#r0"/><use x="343" y="445" xlink:href="#r0"/><use x="377" y="445" xlink:href="#r0"/><use x="394" y="445" xlink:href="#r0"/><use x="411" y="445" xlink:href="#r0"/><use x="462" y="445" xlink:href="#r0"/><use x="3" y="462" xlink:href="#r0"/><use x="105" y="462" xlink:href="#r0"/><use x="139" y="462" xlink:href="#r0"/><use x="156" y="462" xlink:href="#r0"/><use x="173" y="462" xlink:href="#r0"/><use x="190" y="462" xlink:href="#r0"/><use x="241" y="462" xlink:href="#r0"/><use x="258" y="462" xlink:href="#r0"/><use x="275" y="462" xlink:href="#r0"/><use x="343" y="462" xlink:href="#r0"/><use x="394" y="462" xlink:href="#r0"/><use x="411" y="462" xlink:href="#r0"/><use x="428" y="462" xlink:href="#r0"/><use x="462" y="462" xlink:href="#r0"/><use x="3" y="479" xlink:href="#r0"/><use x="20" y="479" xlink:href="#r0"/><use x="37" y="479" xlink:href="#r0"/><use x="54" y="479" xlink:href="#r0"/><use x="71" y="479" xlink:href="#r0"/><use x="88" y="479" xlink:href="#r0"/><use x="105" y="479" xlink:href="#r0"/><use x="139" y="479" xlink:href="#r0"/><use x="224" y="479" xlink:href="#r0"/><use x="258" y="479" xlink:href="#r0"/><use x="292" y="479" xlink:href="#r0"/><use x="326" y="479" xlink:href="#r0"/><use x="360" y="479" xlink:href="#r0"/><use x="377" y="479" xlink:href="#r0"/><use x="411" y="479" xlink:href="#r0"/><use x="445" y="479" xlink:href="#r0"/></svg>
